<?xml version="1.0" encoding="utf-8"?>
<!-- Generator: Adobe Illustrator 27.1.1, SVG Export Plug-In . SVG Version: 6.00 Build 0)  -->
<svg version="1.1" id="Ebene_2_00000152240551637345802430000002080058224104200345_"
	 xmlns="http://www.w3.org/2000/svg" xmlns:xlink="http://www.w3.org/1999/xlink" x="0px" y="0px" viewBox="0 0 2895.5 790.1"
	 style="enable-background:new 0 0 2895.5 790.1;" xml:space="preserve">
<style type="text/css">
	.st0{fill:#15D1A0;}
</style>
<g id="Ebene_1-2">
	<g id="Gruppe_1280">
		<g id="Gruppe_1276">
			<path id="Pfad_1" class="st0" d="M1005.5,542.5c-67.1,0-104.6-38-104.6-108.6v-51c0-70.6,37.1-108.6,104.1-108.6
				c62.1,0,97.7,32.6,100.1,88.7H1078c-3-43-27.6-64.1-72.2-64.1c-51.5,0-77.1,28.1-77.1,85.6v48.1c0,57.6,25.5,85.6,77.1,85.6
				c44.6,0,69.1-21,72.2-64h27.1c-2.4,55-37.1,88.7-99.6,88.7 M1171.7,536.6V171h28.1v154.3c17.9-32.4,52.2-51.9,89.2-51
				c53.1,0,80.2,32.1,80.2,92.7v169.7H1341V369.9c0-47-18-70.1-56.6-70.1c-36.1,0-64.1,20-84.7,66.6v170.2L1171.7,536.6
				L1171.7,536.6z M1550.3,542.5c-70.1,0-108.6-38-108.6-108.6v-51c0-70.6,37.6-108.6,106.2-108.6s105.7,38,105.7,108.6v31.6h-183.8
				V432c0,58.1,26,86.1,79.6,86.1c46.1,0,72.2-21,75.1-56.6h27.1c-3.5,52.6-40.6,81.2-101.2,81.2 M1469.8,390.5h156.7v-5.5
				c0-58.1-25.5-86.1-78.6-86.1s-78.1,28.1-78.1,86.1V390.5z M1819.8,542.7c-67.1,0-104.6-38-104.6-108.6v-51
				c0-70.6,37.1-108.6,104.1-108.6c62.1,0,97.7,32.6,100.1,88.7h-27.1c-3-43-27.6-64.1-72.2-64.1c-51.6,0-77.1,28.1-77.1,85.6v48.1
				c0,57.6,25.5,85.6,77.1,85.6c44.6,0,69.1-21,72.2-64h27.1c-2.4,55-37.1,88.7-99.6,88.7 M1986,536.7V171h28.1V423l143.2-142.8
				h36.1l-105.2,104.6l107.2,151.7h-34l-93.2-131.7l-54.1,53.1v78.6h-28L1986,536.7L1986,536.7z M2243.5,536.7V278.1h37.5l1.6,40.6
				c16.2-29.5,47.6-47.5,81.2-46.5c36.1,0,60.6,15.5,71.1,45.1c16.9-28.6,47.9-45.9,81.2-45.1c51.6,0,80.2,31.1,80.2,88.1v176.3
				h-44.1V363.8c0-34.5-15.1-51-42-51s-49.1,17-68.2,54.6v169.3h-44.1V363.9c0-34.5-15.1-51-42.1-51s-49.1,17-68.2,57.1v166.8h-44.2
				L2243.5,536.7L2243.5,536.7z M2675.2,536.7V171h44.1v234.4l119.2-127.2h55l-99.2,105.2l101.2,153.2h-52.6l-79.1-121.1l-44.6,46.5
				v74.6h-44.1L2675.2,536.7L2675.2,536.7z"/>
		</g>
		<path id="Pfad_2630" class="st0" d="M341.4,0l341.4,197.6v395L341.4,790.1L0,592.5v-395L341.4,0z M117.3,287.6v131.1l160.8-103.9
			v270.5l63.4,36.6l63.3-36.6V314.8l160.7,103.9V287.6L341.4,147.2L117.3,287.6L117.3,287.6z"/>
	</g>
</g>
</svg>
