<?xml version="1.0" encoding="utf-8"?>
<!-- Generator: Adobe Illustrator 27.1.1, SVG Export Plug-In . SVG Version: 6.00 Build 0)  -->
<svg version="1.1" id="Ebene_2_00000018951778280482350120000014910821195889959865_"
	 xmlns="http://www.w3.org/2000/svg" xmlns:xlink="http://www.w3.org/1999/xlink" x="0px" y="0px" viewBox="0 0 3000 2075.4"
	 style="enable-background:new 0 0 3000 2075.4;" xml:space="preserve">
<style type="text/css">
	.st0{fill:#15D1A0;}
</style>
<g id="Ebene_2-2">
	<g>
		<g id="Gruppe_1280">
			<g id="Gruppe_1276">
				<path id="Pfad_1" class="st0" d="M157.4,2075C56.4,2075,0,2017.9,0,1911.6v-76.8c0-106.2,55.8-163.4,156.6-163.4
					c93.4,0,146.9,49,150.6,133.3h-40.7c-4.5-64.7-41.5-96.3-108.6-96.3c-77.5,0-115.9,42.2-115.9,128.7v72.3
					c0,86.7,38.4,128.7,115.9,128.7c67.1,0,103.9-31.6,108.6-96.3h40.7c-3.7,82.8-55.8,133.3-149.8,133.3 M407.4,2066.1v-549.9h42.2
					v232c26.9-48.7,78.5-78.1,134.1-76.8c79.9,0,120.6,48.3,120.6,139.4v255.3h-42.2v-250.8c0-70.8-27.1-105.4-85.1-105.4
					c-54.3,0-96.3,30.1-127.4,100.2v256.1L407.4,2066.1L407.4,2066.1z M976.9,2075c-105.5,0-163.4-57.2-163.4-163.4v-76.8
					c0-106.2,56.6-163.4,159.7-163.4s158.9,57.2,158.9,163.4v47.5H855.7v26.4c0,87.4,39.2,129.5,119.8,129.5
					c69.4,0,108.6-31.6,113-85.1h40.7c-5.2,79.1-61.1,122.1-152.2,122.1 M855.7,1846.3h235.7v-8.3c0-87.4-38.4-129.5-118.2-129.5
					s-117.5,42.2-117.5,129.5L855.7,1846.3L855.7,1846.3z M1382.1,2075.2c-101,0-157.4-57.2-157.4-163.4v-76.8
					c0-106.2,55.8-163.4,156.6-163.4c93.4,0,146.9,49,150.6,133.3h-40.7c-4.4-64.7-41.5-96.3-108.6-96.3
					c-77.5,0-115.9,42.2-115.9,128.7v72.3c0,86.7,38.4,128.7,115.9,128.7c67.1,0,103.9-31.6,108.6-96.3h40.7
					c-3.7,82.8-55.8,133.3-149.8,133.3 M1632.2,2066.3v-550.1h42.2v378.9l215.3-214.8h54.3l-158.2,157.4l161.3,228.1H1896
					l-140.1-198.1l-81.4,79.8v118.2h-42.1L1632.2,2066.3L1632.2,2066.3L1632.2,2066.3z M2019.4,2066.3v-389h56.4l2.3,61.1
					c24.4-44.4,71.5-71.5,122.1-70c54.3,0,91.1,23.2,107,67.8c25.4-43,72.1-69,122.1-67.8c77.5,0,120.6,46.7,120.6,132.6v265.2
					h-66.3v-259.9c0-51.9-22.7-76.8-63.2-76.8s-73.9,25.6-102.5,82.2v254.7h-66.3v-259.9c0-51.9-22.7-76.8-63.4-76.8
					s-73.9,25.6-102.5,85.9v250.8h-66.5L2019.4,2066.3L2019.4,2066.3L2019.4,2066.3z M2668.8,2066.3v-550.1h66.3v352.6l179.3-191.3
					h82.8l-149.2,158.2l152.1,230.5h-79.1l-119-182.2l-67.1,70v112.2h-66.3L2668.8,2066.3L2668.8,2066.3L2668.8,2066.3z"/>
			</g>
		</g>
		<path id="Pfad_2630" class="st0" d="M1500,0l513.4,297.1v594.1L1500,1188.4L986.5,891.2V297.1L1500,0z M1162.9,432.6v197.1
			l241.9-156.2v406.8l95.4,55l95.2-55V473.5l241.7,156.2V432.6L1500,221.3L1162.9,432.6L1162.9,432.6L1162.9,432.6z"/>
	</g>
</g>
</svg>
