<?xml version="1.0" encoding="UTF-8"?>
<svg id="Ebene_2" data-name="Ebene 2" xmlns="http://www.w3.org/2000/svg" width="3000.02" height="2075.42" viewBox="0 0 3000.02 2075.42">
  <defs>
    <style>
      .cls-1 {
        fill: #fff;
      }
    </style>
  </defs>
  <g id="Ebene_2-2" data-name="Ebene 2">
    <g id="Ebene_2-2" data-name="Ebene 2-2">
      <g>
        <g id="Gruppe_1280" data-name="Gruppe 1280">
          <g id="Gruppe_1276" data-name="Gruppe 1276">
            <path id="Pfad_1" data-name="Pfad 1" class="cls-1" d="m157.38,2075.04c-100.98,0-157.38-57.18-157.38-163.4v-76.75c0-106.21,55.81-163.4,156.61-163.4,93.43,0,146.91,49.03,150.6,133.35h-40.7c-4.45-64.73-41.48-96.33-108.55-96.33-77.53,0-115.92,42.25-115.92,128.7v72.3c0,86.65,38.38,128.7,115.92,128.7,67.06,0,103.9-31.6,108.55-96.33h40.7c-3.68,82.77-55.81,133.35-149.83,133.35m250.03-9.11v-549.87h42.25v232.01c26.94-48.66,78.5-78.12,134.13-76.75,79.86,0,120.56,48.26,120.56,139.36v255.26h-42.25v-250.81c0-70.75-27.13-105.45-85.08-105.45-54.27,0-96.33,30.05-127.35,100.21v256.05h-42.26,0Zm569.46,8.89c-105.45,0-163.4-57.18-163.4-163.4v-76.75c0-106.21,56.6-163.4,159.71-163.4s158.93,57.18,158.93,163.4v47.48h-276.4v26.37c0,87.41,39.15,129.48,119.78,129.48,69.4,0,108.55-31.6,113-85.08h40.7c-5.23,79.08-61.05,122.11-152.15,122.11m-121.33-228.91h235.7v-8.33c0-87.41-38.38-129.48-118.23-129.48s-117.46,42.25-117.46,129.48v8.33h-.01Zm526.43,228.91c-100.98,0-157.38-57.18-157.38-163.4v-76.75c0-106.21,55.83-163.4,156.61-163.4,93.43,0,146.91,49.03,150.6,133.35h-40.7c-4.45-64.73-41.48-96.33-108.55-96.33-77.53,0-115.92,42.25-115.92,128.7v72.3c0,86.65,38.38,128.7,115.92,128.7,67.06,0,103.9-31.6,108.55-96.33h40.7c-3.68,82.77-55.83,133.35-149.83,133.35m250.03-9.11v-550.07h42.25v378.93l215.35-214.76h54.27l-158.16,157.38,161.26,228.13h-51.17l-140.13-198.1-81.41,79.85v118.23h-42.07l-.2.39v.02h.01Zm387.27,0v-389h56.4l2.33,61.05c24.43-44.38,71.52-71.52,122.11-69.97,54.27,0,91.1,23.25,107,67.83,25.39-43.03,72.1-69,122.11-67.83,77.53,0,120.56,46.72,120.56,132.58v265.16h-66.28v-259.93c0-51.95-22.68-76.75-63.18-76.75s-73.85,25.58-102.53,82.18v254.69h-66.28v-259.93c0-51.95-22.68-76.75-63.38-76.75s-73.85,25.58-102.53,85.87v250.81h-66.48.2-.05Zm649.32-.02v-550.07h66.28v352.57l179.3-191.31h82.77l-149.24,158.16,152.15,230.46h-79.08l-119.01-182.2-67.06,69.97v112.23h-66.28l.2.2h-.03Z"/>
          </g>
        </g>
        <path id="Pfad_2630" data-name="Pfad 2630" class="cls-1" d="m1500,0l513.45,297.14v594.08l-513.45,297.14-513.45-297.14V297.14L1500,0Zm-337.07,432.62v197.12l241.89-156.22v406.84l95.36,55.05,95.18-55.05v-406.84l241.7,156.22v-197.12l-337.07-211.27-337.07,211.27h.02-.01Z"/>
      </g>
    </g>
  </g>
</svg>