<svg xmlns="http://www.w3.org/2000/svg" width="224.678" height="61.304" viewBox="0 0 224.678 61.304">
  <g id="Gruppe_1280" data-name="Gruppe 1280" transform="translate(19579.73 13436.651)">
    <g id="Gruppe_1276" data-name="Gruppe 1276" transform="translate(-19509.836 -13423.383)">
      <path id="Pfad_1" data-name="Pfad 1" d="M357.349,347.653c-5.207,0-8.122-2.953-8.122-8.433v-3.964c0-5.48,2.876-8.433,8.083-8.433,4.819,0,7.578,2.526,7.772,6.878h-2.1c-.233-3.342-2.137-4.974-5.6-4.974-4,0-5.985,2.176-5.985,6.645V339.1c0,4.469,1.982,6.645,5.985,6.645,3.459,0,5.362-1.632,5.6-4.974h2.1c-.194,4.275-2.876,6.878-7.733,6.878m12.9-.466V318.818h2.177v11.969a7.7,7.7,0,0,1,6.917-3.964c4.119,0,6.218,2.487,6.218,7.189v13.174h-2.176V334.246c0-3.653-1.4-5.441-4.392-5.441-2.8,0-4.974,1.554-6.567,5.168v13.213Zm29.379.466c-5.441,0-8.433-2.953-8.433-8.433v-3.964c0-5.48,2.915-8.433,8.239-8.433s8.2,2.953,8.2,8.433V337.7H393.373v1.36c0,4.508,2.02,6.684,6.179,6.684,3.575,0,5.6-1.632,5.829-4.391h2.1c-.272,4.08-3.148,6.3-7.85,6.3m-6.256-11.814h12.163v-.428c0-4.508-1.982-6.684-6.1-6.684s-6.062,2.176-6.062,6.684Zm27.163,11.814c-5.207,0-8.122-2.953-8.122-8.433v-3.964c0-5.48,2.876-8.433,8.083-8.433,4.819,0,7.578,2.526,7.772,6.878h-2.1c-.233-3.342-2.138-4.974-5.6-4.974-4,0-5.985,2.176-5.985,6.645V339.1c0,4.469,1.982,6.645,5.985,6.645,3.458,0,5.363-1.632,5.6-4.974h2.1c-.194,4.275-2.876,6.878-7.733,6.878m12.9-.466V318.818h2.177v19.547l11.114-11.075h2.8l-8.161,8.122,8.316,11.775h-2.643l-7.228-10.221-4.2,4.119v6.1Zm19.975,0V327.134h2.914l.117,3.148a6.968,6.968,0,0,1,6.3-3.614c2.8,0,4.7,1.205,5.518,3.5a7.105,7.105,0,0,1,6.3-3.5c4,0,6.217,2.41,6.217,6.84v13.679h-3.42V333.78c0-2.682-1.166-3.964-3.264-3.964s-3.809,1.321-5.285,4.236v13.135h-3.42V333.78c0-2.682-1.166-3.964-3.265-3.964-2.138,0-3.808,1.321-5.285,4.43v12.941Zm33.5,0V318.818h3.42v18.187l9.249-9.871h4.274l-7.695,8.161,7.85,11.892h-4.08l-6.14-9.4L490.33,341.4v5.79Z" transform="translate(-349.227 -318.818)" fill="#fff"/>
    </g>
    <path id="Pfad_2630" data-name="Pfad 2630" d="M234.26,291.966l26.49,15.326v30.652l-26.49,15.326-26.49-15.326V307.292Zm-17.391,22.319v10.173l12.475-8.058v20.989l4.916,2.843,4.915-2.843V316.4l12.467,8.058V314.285l-17.382-10.9Z" transform="translate(-19787.5 -13728.617)" fill="#fff"/>
    <g id="Gruppe_1277" data-name="Gruppe 1277" transform="translate(-19509.836 -13423.383)">
      <path id="Pfad_1-2" data-name="Pfad 1" d="M357.349,347.653c-5.207,0-8.122-2.953-8.122-8.433v-3.964c0-5.48,2.876-8.433,8.083-8.433,4.819,0,7.578,2.526,7.772,6.878h-2.1c-.233-3.342-2.137-4.974-5.6-4.974-4,0-5.985,2.176-5.985,6.645V339.1c0,4.469,1.982,6.645,5.985,6.645,3.459,0,5.362-1.632,5.6-4.974h2.1c-.194,4.275-2.876,6.878-7.733,6.878m12.9-.466V318.818h2.177v11.969a7.7,7.7,0,0,1,6.917-3.964c4.119,0,6.218,2.487,6.218,7.189v13.174h-2.176V334.246c0-3.653-1.4-5.441-4.392-5.441-2.8,0-4.974,1.554-6.567,5.168v13.213Zm29.379.466c-5.441,0-8.433-2.953-8.433-8.433v-3.964c0-5.48,2.915-8.433,8.239-8.433s8.2,2.953,8.2,8.433V337.7H393.373v1.36c0,4.508,2.02,6.684,6.179,6.684,3.575,0,5.6-1.632,5.829-4.391h2.1c-.272,4.08-3.148,6.3-7.85,6.3m-6.256-11.814h12.163v-.428c0-4.508-1.982-6.684-6.1-6.684s-6.062,2.176-6.062,6.684Zm27.163,11.814c-5.207,0-8.122-2.953-8.122-8.433v-3.964c0-5.48,2.876-8.433,8.083-8.433,4.819,0,7.578,2.526,7.772,6.878h-2.1c-.233-3.342-2.138-4.974-5.6-4.974-4,0-5.985,2.176-5.985,6.645V339.1c0,4.469,1.982,6.645,5.985,6.645,3.458,0,5.363-1.632,5.6-4.974h2.1c-.194,4.275-2.876,6.878-7.733,6.878m12.9-.466V318.818h2.177v19.547l11.114-11.075h2.8l-8.161,8.122,8.316,11.775h-2.643l-7.228-10.221-4.2,4.119v6.1Zm19.975,0V327.134h2.914l.117,3.148a6.968,6.968,0,0,1,6.3-3.614c2.8,0,4.7,1.205,5.518,3.5a7.105,7.105,0,0,1,6.3-3.5c4,0,6.217,2.41,6.217,6.84v13.679h-3.42V333.78c0-2.682-1.166-3.964-3.264-3.964s-3.809,1.321-5.285,4.236v13.135h-3.42V333.78c0-2.682-1.166-3.964-3.265-3.964-2.138,0-3.808,1.321-5.285,4.43v12.941Zm33.5,0V318.818h3.42v18.187l9.249-9.871h4.274l-7.695,8.161,7.85,11.892h-4.08l-6.14-9.4L490.33,341.4v5.79Z" transform="translate(-349.227 -318.818)" fill="#fff"/>
    </g>
    <path id="Pfad_2631" data-name="Pfad 2631" d="M234.26,291.966l26.49,15.326v30.652l-26.49,15.326-26.49-15.326V307.292Zm-17.391,22.319v10.173l12.475-8.058v20.989l4.916,2.843,4.915-2.843V316.4l12.467,8.058V314.285l-17.382-10.9Z" transform="translate(-19787.5 -13728.617)" fill="#fff"/>
  </g>
</svg>
