<svg enable-background="new 0 0 14 14" viewBox="0 0 14 14" xmlns="http://www.w3.org/2000/svg"><g transform="translate(1 1)"><path d="m12 4.3h-12v-3.3c0-.6.4-1 1-1h10c.6 0 1 .4 1 1z" fill="none" stroke="#13d389"/><path d="m0 4.3h12v6.7c0 .6-.4 1-1 1h-10c-.6 0-1-.4-1-1z" fill="none" stroke="#13d389"/><g fill="#13d389"><path d="m1.7 1.5c-.4 0-.7.3-.7.7s.3.7.7.7.7-.3.7-.7-.4-.7-.7-.7z"/><path d="m3.7 1.5c-.4 0-.7.3-.7.7s.3.7.7.7.7-.3.7-.7-.4-.7-.7-.7z"/><path d="m11 2.5c0 .2-.1.3-.3.3h-5c-.2 0-.3-.1-.3-.3v-.7c0-.2.1-.3.3-.3h5c.2 0 .3.1.3.3z"/></g></g></svg>